<svg id="visual" viewBox="0 0 900 600" width="900" height="600" xmlns="http://www.w3.org/2000/svg" xmlns:xlink="http://www.w3.org/1999/xlink" version="1.1"><path d="M0 61L18.8 64C37.7 67 75.3 73 112.8 78C150.3 83 187.7 87 225.2 87C262.7 87 300.3 83 337.8 78C375.3 73 412.7 67 450.2 70C487.7 73 525.3 85 562.8 93C600.3 101 637.7 105 675.2 100C712.7 95 750.3 81 787.8 77C825.3 73 862.7 79 881.3 82L900 85L900 0L881.3 0C862.7 0 825.3 0 787.8 0C750.3 0 712.7 0 675.2 0C637.7 0 600.3 0 562.8 0C525.3 0 487.7 0 450.2 0C412.7 0 375.3 0 337.8 0C300.3 0 262.7 0 225.2 0C187.7 0 150.3 0 112.8 0C75.3 0 37.7 0 18.8 0L0 0Z" fill="#5b5b5b"></path><path d="M0 115L18.8 120C37.7 125 75.3 135 112.8 144C150.3 153 187.7 161 225.2 165C262.7 169 300.3 169 337.8 164C375.3 159 412.7 149 450.2 144C487.7 139 525.3 139 562.8 144C600.3 149 637.7 159 675.2 157C712.7 155 750.3 141 787.8 136C825.3 131 862.7 135 881.3 137L900 139L900 83L881.3 80C862.7 77 825.3 71 787.8 75C750.3 79 712.7 93 675.2 98C637.7 103 600.3 99 562.8 91C525.3 83 487.7 71 450.2 68C412.7 65 375.3 71 337.8 76C300.3 81 262.7 85 225.2 85C187.7 85 150.3 81 112.8 76C75.3 71 37.7 65 18.8 62L0 59Z" fill="#494949"></path><path d="M0 241L18.8 248C37.7 255 75.3 269 112.8 274C150.3 279 187.7 275 225.2 268C262.7 261 300.3 251 337.8 253C375.3 255 412.7 269 450.2 276C487.7 283 525.3 283 562.8 282C600.3 281 637.7 279 675.2 269C712.7 259 750.3 241 787.8 242C825.3 243 862.7 263 881.3 273L900 283L900 137L881.3 135C862.7 133 825.3 129 787.8 134C750.3 139 712.7 153 675.2 155C637.7 157 600.3 147 562.8 142C525.3 137 487.7 137 450.2 142C412.7 147 375.3 157 337.8 162C300.3 167 262.7 167 225.2 163C187.7 159 150.3 151 112.8 142C75.3 133 37.7 123 18.8 118L0 113Z" fill="#373737"></path><path d="M0 463L18.8 469C37.7 475 75.3 487 112.8 489C150.3 491 187.7 483 225.2 478C262.7 473 300.3 471 337.8 457C375.3 443 412.7 417 450.2 411C487.7 405 525.3 419 562.8 423C600.3 427 637.7 421 675.2 422C712.7 423 750.3 431 787.8 439C825.3 447 862.7 455 881.3 459L900 463L900 281L881.3 271C862.7 261 825.3 241 787.8 240C750.3 239 712.7 257 675.2 267C637.7 277 600.3 279 562.8 280C525.3 281 487.7 281 450.2 274C412.7 267 375.3 253 337.8 251C300.3 249 262.7 259 225.2 266C187.7 273 150.3 277 112.8 272C75.3 267 37.7 253 18.8 246L0 239Z" fill="#303030"></path><path d="M0 601L18.8 601C37.7 601 75.3 601 112.8 601C150.3 601 187.7 601 225.2 601C262.7 601 300.3 601 337.8 601C375.3 601 412.7 601 450.2 601C487.7 601 525.3 601 562.8 601C600.3 601 637.7 601 675.2 601C712.7 601 750.3 601 787.8 601C825.3 601 862.7 601 881.3 601L900 601L900 461L881.3 457C862.7 453 825.3 445 787.8 437C750.3 429 712.7 421 675.2 420C637.7 419 600.3 425 562.8 421C525.3 417 487.7 403 450.2 409C412.7 415 375.3 441 337.8 455C300.3 469 262.7 471 225.2 476C187.7 481 150.3 489 112.8 487C75.3 485 37.7 473 18.8 467L0 461Z" fill="#292929"></path></svg>